<svg id="Layer_1" data-name="Layer 1" xmlns="http://www.w3.org/2000/svg" viewBox="0 0 51.63 19.3"><defs><style>.cls-1{fill:#e0e0e0;}.cls-2{fill:#66a1d6;}</style></defs><title>Artboard 2</title><path class="cls-1" d="M.53,8.07V.65A.62.62,0,0,1,1.14,0h.58a.62.62,0,0,1,.61.61V2.73a.61.61,0,0,0,.61.61H5.07a.61.61,0,0,0,.61-.61V.65A.62.62,0,0,1,6.29,0h.58a.62.62,0,0,1,.61.61V8.07a.61.61,0,0,1-.61.61H6.29a.61.61,0,0,1-.61-.61V5.44a.61.61,0,0,0-.61-.61H2.94a.61.61,0,0,0-.61.61V8.07a.61.61,0,0,1-.61.61H1.14A.61.61,0,0,1,.53,8.07Z"/><path class="cls-1" d="M9.56,2.29a.61.61,0,0,1,.61.61V6.14A2.08,2.08,0,0,0,10.3,7a.88.88,0,0,0,.89.49,1.17,1.17,0,0,0,1.17-.69,2.5,2.5,0,0,0,.16-1V2.9a.62.62,0,0,1,.61-.61h.48a.62.62,0,0,1,.61.61V8.07a.61.61,0,0,1-.61.61h-1v-.9L12.48,8a1.16,1.16,0,0,1-.23.26,2.14,2.14,0,0,1-.75.48,2.51,2.51,0,0,1-.86.13,1.9,1.9,0,0,1-1.9-1,3.79,3.79,0,0,1-.28-1.66V2.9a.62.62,0,0,1,.61-.61Z"/><path class="cls-1" d="M19.66,2.37a1.91,1.91,0,0,1,.8.63,1.72,1.72,0,0,1,.32.74,9.19,9.19,0,0,1,0,1.23V8.11a.61.61,0,0,1-.61.61h-.48a.61.61,0,0,1-.61-.61V4.84A1.81,1.81,0,0,0,19,4a.9.9,0,0,0-.87-.44,1.15,1.15,0,0,0-1,.44,2,2,0,0,0-.34,1.26V8.11a.61.61,0,0,1-.61.61H15.7a.61.61,0,0,1-.61-.61V.73A.61.61,0,0,1,15.7.12h.45a.61.61,0,0,1,.61.61V3.16a2,2,0,0,1,.83-.77,2.31,2.31,0,0,1,1-.22A2.79,2.79,0,0,1,19.66,2.37Z"/><path class="cls-1" d="M22.51.45A3.05,3.05,0,0,1,24.21,0a3.67,3.67,0,0,1,2.2.63,2.16,2.16,0,0,1,.88,1.88,2.13,2.13,0,0,1-.38,1.28,4.5,4.5,0,0,1-.85.81l-.42.32a1.22,1.22,0,0,0-.45.62,2.7,2.7,0,0,0-.08.69H23.53a4.6,4.6,0,0,1,.18-1.37A2.47,2.47,0,0,1,24.5,4l.42-.33a1.4,1.4,0,0,0,.34-.35,1.14,1.14,0,0,0,.23-.71,1.31,1.31,0,0,0-.26-.81,1.1,1.1,0,0,0-.95-.37,1,1,0,0,0-1,.46,1.71,1.71,0,0,0-.28.93H22a.62.62,0,0,1-.6-.75A2.45,2.45,0,0,1,22.51.45ZM24.1,7h.53a.61.61,0,0,1,.61.61v.47a.61.61,0,0,1-.61.61H24.1a.61.61,0,0,1-.61-.61V7.64A.61.61,0,0,1,24.1,7Z"/><path class="cls-2" d="M1.23,10.44a.62.62,0,0,1,.6.48l1,4.47.25,1.38,1.13-4.83a.6.6,0,0,1,.59-.5h.91a.62.62,0,0,1,.6.49l1.19,4.84.26-1.33,1-4.52a.61.61,0,0,1,.59-.48H10a.61.61,0,0,1,.58.78L8.48,18.64a.62.62,0,0,1-.59.44H7.12a.61.61,0,0,1-.6-.49L5.28,13.36,4,18.59a.61.61,0,0,1-.6.49H2.71a.6.6,0,0,1-.58-.44L0,11.22a.62.62,0,0,1,.59-.78Z"/><path class="cls-2" d="M14.69,12.82a2.64,2.64,0,0,1,1.1.95,3.2,3.2,0,0,1,.51,1.32,8.68,8.68,0,0,1,.05,1.27H11.7a1.52,1.52,0,0,0,.67,1.34,1.7,1.7,0,0,0,.92.24,1.4,1.4,0,0,0,.93-.29,1.32,1.32,0,0,0,.34-.44h1.71a2.11,2.11,0,0,1-.62,1.16,3.1,3.1,0,0,1-2.4.93A3.45,3.45,0,0,1,11,18.51,3.09,3.09,0,0,1,10,16a3.44,3.44,0,0,1,.88-2.54,3.09,3.09,0,0,1,2.28-.89A3.67,3.67,0,0,1,14.69,12.82Zm-2.5,1.45a1.69,1.69,0,0,0-.45,1h2.88a1.38,1.38,0,0,0-.44-1,1.48,1.48,0,0,0-1-.35A1.3,1.3,0,0,0,12.19,14.27Z"/><path class="cls-2" d="M19.73,15.2a2.7,2.7,0,0,0,.67-.15.5.5,0,0,0,.36-.48.57.57,0,0,0-.28-.54,1.71,1.71,0,0,0-.81-.15,1.06,1.06,0,0,0-.85.3,1.19,1.19,0,0,0-.24.58H17a2.42,2.42,0,0,1,.47-1.37,2.72,2.72,0,0,1,2.28-.85A4.07,4.07,0,0,1,21.6,13a1.59,1.59,0,0,1,.81,1.57v2.93c0,.2,0,.45,0,.74a.86.86,0,0,0,.1.44.52.52,0,0,0,.24.19v.25H21a2,2,0,0,1-.1-.36,3.74,3.74,0,0,1-.05-.39A3.57,3.57,0,0,1,20,19a2.38,2.38,0,0,1-1.22.31,2.13,2.13,0,0,1-1.45-.5,1.74,1.74,0,0,1-.56-1.4,1.81,1.81,0,0,1,.91-1.7,3.88,3.88,0,0,1,1.48-.41Zm1,.78a3.18,3.18,0,0,1-.32.16,2.46,2.46,0,0,1-.45.11l-.38.07a2.45,2.45,0,0,0-.77.23.87.87,0,0,0-.15,1.33.94.94,0,0,0,.58.19,1.75,1.75,0,0,0,1-.32,1.33,1.33,0,0,0,.48-1.15Z"/><path class="cls-2" d="M23,13.89V12.7h.89V11.53a.61.61,0,0,1,.61-.61h.43a.61.61,0,0,1,.61.61V12.7h1v1.19h-1v3.38a.75.75,0,0,0,.1.49,1.18,1.18,0,0,0,.61.09h.33v1.25l-.79,0a2.12,2.12,0,0,1-1.62-.41,1.22,1.22,0,0,1-.28-.89V13.89Z"/><path class="cls-2" d="M32.22,12.68a1.94,1.94,0,0,1,.79.63,1.74,1.74,0,0,1,.32.73,8.94,8.94,0,0,1,.06,1.24v3.14a.61.61,0,0,1-.61.61h-.49a.61.61,0,0,1-.61-.61V15.14a1.68,1.68,0,0,0-.17-.83.87.87,0,0,0-.86-.45,1.18,1.18,0,0,0-1,.45,2,2,0,0,0-.34,1.26v2.85a.61.61,0,0,1-.61.61h-.45a.61.61,0,0,1-.61-.61V11a.61.61,0,0,1,.61-.61h.45a.61.61,0,0,1,.61.61v2.44a2.06,2.06,0,0,1,.84-.78,2.43,2.43,0,0,1,1-.22A2.65,2.65,0,0,1,32.22,12.68Z"/><path class="cls-2" d="M38.57,12.77a2.58,2.58,0,0,1,1.1,1A3,3,0,0,1,40.18,15a7.24,7.24,0,0,1,.06,1.27H35.59a1.49,1.49,0,0,0,.66,1.34,1.73,1.73,0,0,0,.92.24,1.38,1.38,0,0,0,.93-.29,1.33,1.33,0,0,0,.35-.44h1.7a2.05,2.05,0,0,1-.62,1.16,3.1,3.1,0,0,1-2.4.93,3.45,3.45,0,0,1-2.25-.79,3.09,3.09,0,0,1-1-2.56,3.48,3.48,0,0,1,.88-2.54,3.1,3.1,0,0,1,2.29-.89A3.65,3.65,0,0,1,38.57,12.77Zm-2.5,1.45a1.75,1.75,0,0,0-.44,1H38.5a1.34,1.34,0,0,0-.44-1,1.48,1.48,0,0,0-1-.35A1.31,1.31,0,0,0,36.07,14.22Z"/><path class="cls-2" d="M44.63,12.49h.14v1.71l-.28,0h-.2a1.37,1.37,0,0,0-1.35.65A2.58,2.58,0,0,0,42.75,16v2.44a.61.61,0,0,1-.61.61h-.47a.61.61,0,0,1-.61-.61V13.25a.62.62,0,0,1,.61-.61h1v1.12a3.69,3.69,0,0,1,.67-.88,1.84,1.84,0,0,1,1.22-.39Z"/><path class="cls-2" d="M46.86,10.75a3.05,3.05,0,0,1,1.7-.44,3.69,3.69,0,0,1,2.2.63,2.17,2.17,0,0,1,.87,1.87,2.16,2.16,0,0,1-.37,1.29,4.63,4.63,0,0,1-.86.81l-.41.32a1.19,1.19,0,0,0-.45.61,2.7,2.7,0,0,0-.08.69H47.87a4.78,4.78,0,0,1,.19-1.36,2.27,2.27,0,0,1,.78-.87l.43-.34a1.56,1.56,0,0,0,.34-.34,1.23,1.23,0,0,0,.23-.71,1.31,1.31,0,0,0-.26-.81,1.07,1.07,0,0,0-.95-.37,1,1,0,0,0-1,.45,1.72,1.72,0,0,0-.28.94h-1a.62.62,0,0,1-.6-.75A2.45,2.45,0,0,1,46.86,10.75Zm1.58,6.59H49a.61.61,0,0,1,.61.61v.47A.61.61,0,0,1,49,19h-.53a.61.61,0,0,1-.61-.61V18A.61.61,0,0,1,48.44,17.34Z"/></svg>